<mxfile host="app.diagrams.net" modified="2024-02-03T19:20:49.463Z" agent="Mozilla/5.0 (Windows NT 10.0; Win64; x64) AppleWebKit/537.36 (KHTML, like Gecko) Chrome/121.0.0.0 Safari/537.36" etag="yY1pZT09VA6Xpcmp3J6J" version="23.1.1" type="device">
  <diagram name="Pagina-1" id="6W-_9eCsRpdV0mVFciBn">
    <mxGraphModel dx="1327" dy="269" grid="1" gridSize="10" guides="1" tooltips="1" connect="1" arrows="1" fold="1" page="1" pageScale="1" pageWidth="827" pageHeight="1169" math="0" shadow="0">
      <root>
        <mxCell id="0" />
        <mxCell id="1" parent="0" />
        <mxCell id="uxlzwcyzxrWFDI_gasGH-12" value="" style="rounded=0;whiteSpace=wrap;html=1;fillColor=none;dashed=1;strokeColor=#BDBDBD;" vertex="1" parent="1">
          <mxGeometry x="240" y="110" width="350" height="50" as="geometry" />
        </mxCell>
        <mxCell id="uxlzwcyzxrWFDI_gasGH-1" value="0 HOME" style="rounded=0;whiteSpace=wrap;html=1;fontSize=10;" vertex="1" parent="1">
          <mxGeometry x="380" y="60" width="80" height="30" as="geometry" />
        </mxCell>
        <mxCell id="uxlzwcyzxrWFDI_gasGH-3" value="100 SEARCH" style="rounded=0;whiteSpace=wrap;html=1;fontSize=10;" vertex="1" parent="1">
          <mxGeometry x="260" y="120" width="80" height="30" as="geometry" />
        </mxCell>
        <mxCell id="uxlzwcyzxrWFDI_gasGH-9" value="102 SETTINGS" style="rounded=0;whiteSpace=wrap;html=1;fontSize=10;" vertex="1" parent="1">
          <mxGeometry x="500" y="120" width="80" height="30" as="geometry" />
        </mxCell>
        <mxCell id="uxlzwcyzxrWFDI_gasGH-10" value="" style="endArrow=none;html=1;rounded=0;entryX=0.5;entryY=1;entryDx=0;entryDy=0;exitX=0.5;exitY=0;exitDx=0;exitDy=0;" edge="1" parent="1" source="uxlzwcyzxrWFDI_gasGH-7" target="uxlzwcyzxrWFDI_gasGH-1">
          <mxGeometry width="50" height="50" relative="1" as="geometry">
            <mxPoint x="430" y="130" as="sourcePoint" />
            <mxPoint x="480" y="80" as="targetPoint" />
          </mxGeometry>
        </mxCell>
        <mxCell id="uxlzwcyzxrWFDI_gasGH-11" value="" style="endArrow=none;html=1;rounded=0;exitX=1;exitY=0.5;exitDx=0;exitDy=0;entryX=0;entryY=0.5;entryDx=0;entryDy=0;" edge="1" parent="1" source="uxlzwcyzxrWFDI_gasGH-3" target="uxlzwcyzxrWFDI_gasGH-9">
          <mxGeometry width="50" height="50" relative="1" as="geometry">
            <mxPoint x="430" y="130" as="sourcePoint" />
            <mxPoint x="480" y="80" as="targetPoint" />
          </mxGeometry>
        </mxCell>
        <mxCell id="uxlzwcyzxrWFDI_gasGH-7" value="101 LIGHTS" style="rounded=0;whiteSpace=wrap;html=1;fontSize=10;" vertex="1" parent="1">
          <mxGeometry x="380" y="120" width="80" height="30" as="geometry" />
        </mxCell>
        <mxCell id="uxlzwcyzxrWFDI_gasGH-13" value="1XX Home" style="text;html=1;strokeColor=none;fillColor=none;align=left;verticalAlign=middle;whiteSpace=wrap;rounded=0;fontColor=#BDBDBD;" vertex="1" parent="1">
          <mxGeometry x="240" y="90" width="70" height="20" as="geometry" />
        </mxCell>
        <mxCell id="uxlzwcyzxrWFDI_gasGH-19" value="200 ELEC-TRICAL COMP." style="rounded=0;whiteSpace=wrap;html=1;fontSize=10;" vertex="1" parent="1">
          <mxGeometry x="-100" y="190" width="80" height="30" as="geometry" />
        </mxCell>
        <mxCell id="uxlzwcyzxrWFDI_gasGH-23" value="203 OTHER" style="rounded=0;whiteSpace=wrap;html=1;fontSize=10;" vertex="1" parent="1">
          <mxGeometry x="260" y="190" width="80" height="30" as="geometry" />
        </mxCell>
        <mxCell id="uxlzwcyzxrWFDI_gasGH-25" value="" style="endArrow=none;html=1;rounded=0;exitX=1;exitY=0.5;exitDx=0;exitDy=0;entryX=0;entryY=0.5;entryDx=0;entryDy=0;" edge="1" parent="1" source="uxlzwcyzxrWFDI_gasGH-19" target="uxlzwcyzxrWFDI_gasGH-23">
          <mxGeometry width="50" height="50" relative="1" as="geometry">
            <mxPoint x="120" y="190" as="sourcePoint" />
            <mxPoint x="170" y="140" as="targetPoint" />
          </mxGeometry>
        </mxCell>
        <mxCell id="uxlzwcyzxrWFDI_gasGH-20" value="201 PLUGS &amp;amp; JACKS" style="rounded=0;whiteSpace=wrap;html=1;fontSize=10;" vertex="1" parent="1">
          <mxGeometry x="20" y="190" width="80" height="30" as="geometry" />
        </mxCell>
        <mxCell id="uxlzwcyzxrWFDI_gasGH-21" value="202 TOOLS" style="rounded=0;whiteSpace=wrap;html=1;fontSize=10;" vertex="1" parent="1">
          <mxGeometry x="140" y="190" width="80" height="30" as="geometry" />
        </mxCell>
        <mxCell id="uxlzwcyzxrWFDI_gasGH-26" value="" style="endArrow=none;html=1;rounded=0;entryX=0.5;entryY=1;entryDx=0;entryDy=0;exitX=0.5;exitY=0;exitDx=0;exitDy=0;" edge="1" parent="1" source="uxlzwcyzxrWFDI_gasGH-19" target="uxlzwcyzxrWFDI_gasGH-3">
          <mxGeometry width="50" height="50" relative="1" as="geometry">
            <mxPoint x="-60" y="170" as="sourcePoint" />
            <mxPoint x="260" y="110" as="targetPoint" />
            <Array as="points">
              <mxPoint x="-60" y="170" />
              <mxPoint x="300" y="170" />
            </Array>
          </mxGeometry>
        </mxCell>
        <mxCell id="uxlzwcyzxrWFDI_gasGH-27" value="300 WIP" style="rounded=0;whiteSpace=wrap;html=1;fontSize=10;" vertex="1" parent="1">
          <mxGeometry x="380" y="180" width="80" height="30" as="geometry" />
        </mxCell>
        <mxCell id="uxlzwcyzxrWFDI_gasGH-29" value="" style="endArrow=none;html=1;rounded=0;exitX=0.5;exitY=1;exitDx=0;exitDy=0;entryX=0.5;entryY=0;entryDx=0;entryDy=0;" edge="1" parent="1" source="uxlzwcyzxrWFDI_gasGH-7" target="uxlzwcyzxrWFDI_gasGH-27">
          <mxGeometry width="50" height="50" relative="1" as="geometry">
            <mxPoint x="380" y="170" as="sourcePoint" />
            <mxPoint x="430" y="120" as="targetPoint" />
          </mxGeometry>
        </mxCell>
        <mxCell id="uxlzwcyzxrWFDI_gasGH-30" value="400 WIP" style="rounded=0;whiteSpace=wrap;html=1;fontSize=10;" vertex="1" parent="1">
          <mxGeometry x="500" y="180" width="80" height="30" as="geometry" />
        </mxCell>
        <mxCell id="uxlzwcyzxrWFDI_gasGH-31" value="" style="endArrow=none;html=1;rounded=0;exitX=0.5;exitY=1;exitDx=0;exitDy=0;entryX=0.5;entryY=0;entryDx=0;entryDy=0;" edge="1" parent="1" source="uxlzwcyzxrWFDI_gasGH-9" target="uxlzwcyzxrWFDI_gasGH-30">
          <mxGeometry width="50" height="50" relative="1" as="geometry">
            <mxPoint x="460" y="170" as="sourcePoint" />
            <mxPoint x="510" y="120" as="targetPoint" />
          </mxGeometry>
        </mxCell>
        <mxCell id="uxlzwcyzxrWFDI_gasGH-32" value="" style="rounded=0;whiteSpace=wrap;html=1;fillColor=none;dashed=1;strokeColor=#BDBDBD;" vertex="1" parent="1">
          <mxGeometry x="-130" y="180" width="480" height="50" as="geometry" />
        </mxCell>
        <mxCell id="uxlzwcyzxrWFDI_gasGH-33" value="2XX Search" style="text;html=1;strokeColor=none;fillColor=none;align=left;verticalAlign=middle;whiteSpace=wrap;rounded=0;fontColor=#BDBDBD;" vertex="1" parent="1">
          <mxGeometry x="-130" y="160" width="70" height="20" as="geometry" />
        </mxCell>
      </root>
    </mxGraphModel>
  </diagram>
</mxfile>
